<svg width="32" height="40" viewBox="0 0 32 40" fill="none" xmlns="http://www.w3.org/2000/svg">
<path d="M2.2857 0H21.7063L32 11.215V37.5C32 38.8812 30.9761 40 29.7143 40H2.2857C1.02395 40 0 38.8812 0 37.5V2.49998C0 1.11877 1.02406 0 2.2857 0Z" fill="#F3F3F3"/>
<path d="M31.9674 11.2497H24.0005C22.7388 11.2497 21.7148 10.1297 21.7148 8.74968V0.0246582L31.9674 11.2497Z" fill="#FF5500"/>
<path d="M11.5317 25.51C12.1784 25.51 12.6984 25.7433 13.0917 26.21C13.4917 26.6767 13.6917 27.3733 13.6917 28.3C13.6917 28.9067 13.6017 29.42 13.4217 29.84C13.2417 30.26 12.9884 30.5767 12.6617 30.79C12.3351 30.9967 11.9551 31.1 11.5217 31.1C11.2484 31.1 11.0084 31.0667 10.8017 31C10.5951 30.9267 10.4184 30.8333 10.2717 30.72C10.1317 30.6 10.0084 30.4733 9.90172 30.34H9.83172C9.85172 30.46 9.86839 30.6033 9.88172 30.77C9.89505 30.93 9.90172 31.0733 9.90172 31.2V33.4H8.84172V25.61H9.70172L9.85172 26.33H9.90172C10.0084 26.1833 10.1351 26.0467 10.2817 25.92C10.4284 25.7933 10.6051 25.6933 10.8117 25.62C11.0184 25.5467 11.2584 25.51 11.5317 25.51ZM11.2817 26.38C10.9484 26.38 10.6817 26.4467 10.4817 26.58C10.2817 26.7067 10.1351 26.9 10.0417 27.16C9.95505 27.4133 9.90839 27.7367 9.90172 28.13V28.29C9.90172 28.7033 9.94505 29.0567 10.0317 29.35C10.1184 29.6367 10.2617 29.8567 10.4617 30.01C10.6684 30.1567 10.9484 30.23 11.3017 30.23C11.6017 30.23 11.8451 30.15 12.0317 29.99C12.2251 29.8233 12.3684 29.5933 12.4617 29.3C12.5551 29.0067 12.6017 28.6667 12.6017 28.28C12.6017 27.6933 12.4951 27.23 12.2817 26.89C12.0684 26.55 11.7351 26.38 11.2817 26.38ZM16.8929 31.1C16.2462 31.1 15.7229 30.8667 15.3229 30.4C14.9296 29.9333 14.7329 29.24 14.7329 28.32C14.7329 27.3933 14.9329 26.6933 15.3329 26.22C15.7329 25.7467 16.2596 25.51 16.9129 25.51C17.1862 25.51 17.4229 25.5467 17.6229 25.62C17.8296 25.6867 18.0062 25.78 18.1529 25.9C18.3062 26.02 18.4362 26.1533 18.5429 26.3H18.6029C18.5896 26.2067 18.5729 26.0733 18.5529 25.9C18.5329 25.72 18.5229 25.56 18.5229 25.42V23.4H19.5829V31H18.7529L18.5729 30.28H18.5229C18.4229 30.4333 18.2962 30.5733 18.1429 30.7C17.9962 30.82 17.8196 30.9167 17.6129 30.99C17.4062 31.0633 17.1662 31.1 16.8929 31.1ZM17.1429 30.23C17.6629 30.23 18.0296 30.0867 18.2429 29.8C18.4562 29.5067 18.5629 29.07 18.5629 28.49V28.33C18.5629 27.6967 18.4596 27.2133 18.2529 26.88C18.0529 26.5467 17.6796 26.38 17.1329 26.38C16.6996 26.38 16.3729 26.5567 16.1529 26.91C15.9329 27.2567 15.8229 27.7333 15.8229 28.34C15.8229 28.9467 15.9329 29.4133 16.1529 29.74C16.3729 30.0667 16.7029 30.23 17.1429 30.23ZM23.8741 26.42H22.5441V31H21.4841V26.42H20.5741V25.92L21.4841 25.59V25.25C21.4841 24.79 21.5541 24.4233 21.6941 24.15C21.8407 23.87 22.0474 23.6667 22.3141 23.54C22.5807 23.4133 22.9041 23.35 23.2841 23.35C23.5174 23.35 23.7307 23.37 23.9241 23.41C24.1174 23.45 24.2807 23.4933 24.4141 23.54L24.1441 24.35C24.0374 24.3167 23.9141 24.2867 23.7741 24.26C23.6341 24.2267 23.4874 24.21 23.3341 24.21C23.0674 24.21 22.8674 24.2967 22.7341 24.47C22.6074 24.6433 22.5441 24.9067 22.5441 25.26V25.61H23.8741V26.42Z" fill="#494949"/>
</svg>
