<svg xmlns="http://www.w3.org/2000/svg" viewBox="0 0 213 74"><path fill="#ffffff" fill-rule="evenodd" d="M384.672,87.866H382v-5.75h2.673v5.75Zm4.84-5.75,3.9,4.181h0.02a5.441,5.441,0,0,1-.332-2.142V82.117h2.5v5.75h-2.887l-3.9-4.173h-0.02a5.357,5.357,0,0,1,.332,2.134v2.039h-2.5v-5.75h2.888Zm13.407,5.75h-2.673V82.993h-3.317V82.117h9.307v0.876h-3.317v4.874Zm12.178-5.75v0.876h-4.859v1.338h4.429v0.875h-4.429V86.99H415.1v0.876h-7.532v-5.75H415.1Zm4.353,5.75h-2.673v-5.75h5.56c2.166,0,3.532.661,3.532,1.489,0,0.852-.878,1.29-2.127,1.362,1.542,0.127,1.932.613,1.932,1.026v0.733c0,0.526.02,0.964,0.644,0.964v0.175h-2.673A0.893,0.893,0,0,1,423,86.927V86.265c0-.438-0.371-0.835-1.6-0.835H419.45v2.436Zm0-3.258h1.8c0.956,0,1.893-.191,1.893-0.844,0-.629-0.761-0.8-1.952-0.8H419.45v1.639Zm11.163-2.492,3.9,4.181h0.02a5.441,5.441,0,0,1-.332-2.142V82.117h2.5v5.75h-2.887l-3.9-4.173h-0.02a5.357,5.357,0,0,1,.332,2.134v2.039h-2.5v-5.75h2.888Zm10.734,0h3.59l3.122,5.75h-2.888l-0.664-1.5h-3.024l-0.838,1.5h-2.869Zm2.829,3.4L443.1,82.841l-1.288,2.676h2.361Zm9.641,2.35h-2.673V82.993h-3.317V82.117h9.307v0.876h-3.317v4.874Zm7.319,0h-2.673v-5.75h2.673v5.75Zm6.44-5.854c2.712,0,4.527.5,4.527,1.968v2.086c0,1.466-1.815,1.935-4.527,1.935-2.673,0-4.585-.486-4.585-1.935V83.98C462.991,82.531,464.9,82.012,467.576,82.012Zm-1.853,1.841V86.2c0,0.6.585,0.924,1.853,0.924,1.151,0,1.8-.319,1.8-0.924V83.869c0-.613-0.645-0.979-1.8-0.979C466.308,82.889,465.723,83.239,465.723,83.853Zm11.124-1.737,3.9,4.181h0.02a5.441,5.441,0,0,1-.332-2.142V82.117h2.5v5.75h-2.887l-3.9-4.173h-0.02a5.357,5.357,0,0,1,.332,2.134v2.039h-2.5v-5.75h2.888Zm10.734,0h3.591l3.121,5.75h-2.887l-0.664-1.5h-3.024l-0.839,1.5H484.01Zm2.829,3.4-1.072-2.676-1.29,2.676h2.362Zm7.67,1.474h4.858v0.876h-7.532v-5.75h2.674V86.99Zm16.334,0.876h-2.673V82.993h-3.317V82.117h9.308v0.876h-3.318v4.874Zm9.133-5.854c2.713,0,4.528.5,4.528,1.968v2.086c0,1.466-1.815,1.935-4.528,1.935-2.672,0-4.585-.486-4.585-1.935V83.98C518.962,82.531,520.875,82.012,523.547,82.012Zm-1.853,1.841V86.2c0,0.6.586,0.924,1.853,0.924,1.151,0,1.8-.319,1.8-0.924V83.869c0-.613-0.645-0.979-1.8-0.979C522.28,82.889,521.694,83.239,521.694,83.853Zm12.723-1.841c2.713,0,4.528.5,4.528,1.968v2.086c0,1.466-1.815,1.935-4.528,1.935-2.671,0-4.584-.486-4.584-1.935V83.98C529.833,82.531,531.746,82.012,534.417,82.012Zm-1.852,1.841V86.2c0,0.6.586,0.924,1.852,0.924,1.152,0,1.8-.319,1.8-0.924V83.869c0-.613-0.644-0.979-1.8-0.979C533.151,82.889,532.565,83.239,532.565,83.853Zm10.91,3.137h4.857v0.876H540.8v-5.75h2.674V86.99Zm18.5-4.874v0.876h-4.857v1.338h4.428v0.875h-4.428V86.99h4.857v0.876h-7.531v-5.75h7.531Zm4.236,0,1.815,1.872,1.912-1.872h3l-3.473,2.8,3.591,2.955h-2.986l-2.049-2.119L565.9,87.866h-2.926l3.395-2.955-3.259-2.8h3.1Zm10.833,5.75H574.37v-5.75h5.053c2.282,0,3.707.756,3.707,1.68,0,0.947-1.463,1.729-3.747,1.729h-2.34v2.341Zm0-3.193h1.346c1.346,0,2.01-.311,2.01-0.86s-0.664-.844-2.01-0.844h-1.346v1.7Zm12.43-2.66c2.713,0,4.528.5,4.528,1.968v2.086c0,1.466-1.815,1.935-4.528,1.935-2.671,0-4.585-.486-4.585-1.935V83.98C584.888,82.531,586.8,82.012,589.473,82.012Zm-1.853,1.841V86.2c0,0.6.586,0.924,1.853,0.924,1.151,0,1.8-.319,1.8-0.924V83.869c0-.613-0.645-0.979-1.8-0.979C588.206,82.889,587.62,83.239,587.62,83.853ZM579.32,22.2h-1.252V21.277h3.491V22.2h-1.241v3.88h-1V22.2Zm5.093,3.88-1.024-3.354h-0.007v3.354h-1v-4.8h1.377l1,3.279,0.988-3.279h1.37v4.8h-0.991V22.754h-0.026l-1.015,3.327h-0.665Zm-184.44,6.505c3.612-4.43,8.266-7.273,14.568-7.273,6.639,0,11.1,3.04,12.546,7.872,4.2-5.229,8.8-7.872,15.035-7.872,10.7,0,13.455,6.281,13.455,16.33V62.02h-6.368V41.387c0-7.214-2.1-10.652-8.467-10.652-7.483,0-13.068,5.291-13.068,13.229V62.02h-6.168V41.387c0-7.214-2.1-10.652-8.469-10.652-7.489,0-13.064,5.291-13.064,13.229V62.02h-6.364V26.433h6.364v6.152ZM463.919,21.8V14h6.363v7.8h-6.363Zm6.363,40.22h-6.363V26.433h6.363V62.02Zm17.654-44.647v9.061H496.6V31.86h-8.668v21.1c0,2.974,1.188,4.1,4.335,4.1a18.881,18.881,0,0,0,4.333-.533v5.886a41.456,41.456,0,0,1-5.912.6c-6.23,0-9.117-2.649-9.117-8.2V31.86H475.4V26.433h6.178V17.372h6.361Zm17.4,28.179c0,6.94,5.064,11.511,12.612,11.511,5.567,0,9.779-2.193,11.223-6.088h7.419c-2.494,7.671-9.258,12.039-18.642,12.039-11.891,0-19.37-7.28-19.37-18.721,0-11.509,7.553-18.979,19.37-18.979,12.068,0,19.233,7.141,19.233,18.979v1.259H505.332Zm25.014-4.565c-0.979-6.017-5.58-9.725-12.4-9.725-6.762,0-11.431,3.638-12.474,9.725h24.876Zm16.667-14.553L557.065,40.06l10.507-13.626h8.533L560.94,43.964,576.76,62.02h-8.921L557.065,48.128,545.25,62.02h-8.4L552.6,43.964,538.361,26.433h8.652Z" transform="translate(-381.5 -14)"/><path fill="#ffffff" fill-rule="evenodd" stroke="#ffffff" stroke-width="1px" d="M594,77H382" transform="translate(-381.5 -14)"/></svg>