<svg version="1.1" xmlns="http://www.w3.org/2000/svg" xmlns:xlink="http://www.w3.org/1999/xlink">

    <symbol viewBox="0 0 20 20" id="page-header-back-link">
        <path d="M8.46156 5.2885L9.33975 6.19234L6.15704 9.37505L16.25 9.37505L16.25 10.625L6.15704 10.625L9.33975 13.8077L8.46156 14.7115L3.75004 10L8.46156 5.2885Z" />
    </symbol>

    <symbol viewBox="0 0 12 8" id="speaker-detail-text-more">
        <path d="M5.65094 5.24624L10.2509 0.64624L11.3047 1.69999L5.65094 7.35374L-0.00281339 1.69999L1.05094 0.64624L5.65094 5.24624Z" />
    </symbol>

    <symbol viewBox="0 0 24 24" id="speakers-search">
        <path d="M11 19C15.4183 19 19 15.4183 19 11C19 6.58172 15.4183 3 11 3C6.58172 3 3 6.58172 3 11C3 15.4183 6.58172 19 11 19Z" stroke-width="2" stroke-linecap="round" stroke-linejoin="round" />
        <path d="M20.9984 21L16.6484 16.65" stroke-width="2" stroke-linecap="round" stroke-linejoin="round" />
    </symbol>

    <symbol viewBox="0 0 16 16" id="pager-prev">
        <path fill-rule="evenodd" clip-rule="evenodd" d="M4.20503 7.52859C3.93166 7.78894 3.93166 8.21105 4.20503 8.4714L9.80502 13.8047C10.0784 14.0651 10.5216 14.0651 10.795 13.8047C11.0683 13.5444 11.0683 13.1223 10.795 12.8619L5.68995 8L10.795 3.13807C11.0683 2.87772 11.0683 2.45561 10.795 2.19526C10.5216 1.93491 10.0784 1.93491 9.80503 2.19526L4.20503 7.52859Z" />
    </symbol>

    <symbol viewBox="0 0 16 16" id="pager-next">
        <path fill-rule="evenodd" clip-rule="evenodd" d="M11.795 8.4714C12.0683 8.21105 12.0683 7.78895 11.795 7.5286L6.19498 2.19526C5.92161 1.93491 5.47839 1.93491 5.20503 2.19526C4.93166 2.45561 4.93166 2.87772 5.20503 3.13807L10.3101 8L5.20503 12.8619C4.93166 13.1223 4.93166 13.5444 5.20503 13.8047C5.47839 14.0651 5.92161 14.0651 6.19497 13.8047L11.795 8.4714Z" />
    </symbol>

    <symbol viewBox="0 0 12 8" id="pager-size">
        <path d="M5.65383 7.3538L0 1.7L1.05383 0.646179L5.65383 5.24618L10.2538 0.646179L11.3077 1.7L5.65383 7.3538Z" />
    </symbol>

    <symbol viewBox="0 0 24 24" id="event-detail-date">
        <path d="M14.6923 18C14.0499 18 13.5048 17.776 13.0568 17.328C12.6088 16.8798 12.3848 16.3346 12.3848 15.6923C12.3848 15.0499 12.6088 14.5048 13.0568 14.0568C13.5048 13.6088 14.0499 13.3848 14.6923 13.3848C15.3346 13.3848 15.8798 13.6088 16.328 14.0568C16.776 14.5048 17 15.0499 17 15.6923C17 16.3346 16.776 16.8798 16.328 17.328C15.8798 17.776 15.3346 18 14.6923 18ZM5.30775 21.5C4.80258 21.5 4.375 21.325 4.025 20.975C3.675 20.625 3.5 20.1974 3.5 19.6923V6.30777C3.5 5.8026 3.675 5.37502 4.025 5.02502C4.375 4.67502 4.80258 4.50002 5.30775 4.50002H6.69225V2.38477H8.23075V4.50002H15.8077V2.38477H17.3077V4.50002H18.6923C19.1974 4.50002 19.625 4.67502 19.975 5.02502C20.325 5.37502 20.5 5.8026 20.5 6.30777V19.6923C20.5 20.1974 20.325 20.625 19.975 20.975C19.625 21.325 19.1974 21.5 18.6923 21.5H5.30775ZM5.30775 20H18.6923C18.7692 20 18.8398 19.9679 18.9038 19.9038C18.9679 19.8398 19 19.7693 19 19.6923V10.3078H5V19.6923C5 19.7693 5.03208 19.8398 5.09625 19.9038C5.16025 19.9679 5.23075 20 5.30775 20ZM5 8.80777H19V6.30777C19 6.23077 18.9679 6.16026 18.9038 6.09626C18.8398 6.0321 18.7692 6.00002 18.6923 6.00002H5.30775C5.23075 6.00002 5.16025 6.0321 5.09625 6.09626C5.03208 6.16026 5 6.23077 5 6.30777V8.80777Z" />
    </symbol>

    <symbol viewBox="0 0 24 24" id="event-detail-time">
        <path d="M15.473 16.527L16.527 15.473L12.75 11.696V7H11.25V12.3038L15.473 16.527ZM12.0017 21.5C10.6877 21.5 9.45267 21.2507 8.2965 20.752C7.14033 20.2533 6.13467 19.5766 5.2795 18.7218C4.42433 17.8669 3.74725 16.8617 3.24825 15.706C2.74942 14.5503 2.5 13.3156 2.5 12.0017C2.5 10.6877 2.74933 9.45267 3.248 8.2965C3.74667 7.14033 4.42342 6.13467 5.27825 5.2795C6.13308 4.42433 7.13833 3.74725 8.294 3.24825C9.44967 2.74942 10.6844 2.5 11.9983 2.5C13.3123 2.5 14.5473 2.74933 15.7035 3.248C16.8597 3.74667 17.8653 4.42342 18.7205 5.27825C19.5757 6.13308 20.2528 7.13833 20.7518 8.294C21.2506 9.44967 21.5 10.6844 21.5 11.9983C21.5 13.3123 21.2507 14.5473 20.752 15.7035C20.2533 16.8597 19.5766 17.8653 18.7218 18.7205C17.8669 19.5757 16.8617 20.2528 15.706 20.7518C14.5503 21.2506 13.3156 21.5 12.0017 21.5ZM12 20C14.2167 20 16.1042 19.2208 17.6625 17.6625C19.2208 16.1042 20 14.2167 20 12C20 9.78333 19.2208 7.89583 17.6625 6.3375C16.1042 4.77917 14.2167 4 12 4C9.78333 4 7.89583 4.77917 6.3375 6.3375C4.77917 7.89583 4 9.78333 4 12C4 14.2167 4.77917 16.1042 6.3375 17.6625C7.89583 19.2208 9.78333 20 12 20Z" />
    </symbol>

    <symbol viewBox="0 0 24 24" id="event-detail-location">
        <path d="M12.0029 11.8652C12.5004 11.8652 12.9257 11.6881 13.2789 11.3338C13.6322 10.9794 13.8089 10.5535 13.8089 10.056C13.8089 9.5585 13.6317 9.13308 13.2774 8.77975C12.923 8.42658 12.497 8.25 11.9994 8.25C11.5019 8.25 11.0765 8.42717 10.7234 8.7815C10.37 9.13583 10.1934 9.56183 10.1934 10.0595C10.1934 10.557 10.3705 10.9823 10.7249 11.3355C11.0792 11.6887 11.5052 11.8652 12.0029 11.8652ZM12.0011 19.5135C13.9575 17.7622 15.4545 16.0823 16.4924 14.474C17.5302 12.8657 18.0491 11.457 18.0491 10.248C18.0491 8.425 17.47 6.92633 16.3116 5.752C15.1533 4.57767 13.7165 3.9905 12.0011 3.9905C10.2858 3.9905 8.84896 4.57767 7.69062 5.752C6.53229 6.92633 5.95312 8.425 5.95312 10.248C5.95312 11.457 6.47204 12.8657 7.50988 14.474C8.54771 16.0823 10.0448 17.7622 12.0011 19.5135ZM12.0011 21.5095C9.48446 19.3288 7.59729 17.2994 6.33962 15.4212C5.08196 13.5429 4.45312 11.8185 4.45312 10.248C4.45312 7.94033 5.19954 6.07208 6.69237 4.64325C8.18537 3.21442 9.95496 2.5 12.0011 2.5C14.0473 2.5 15.8169 3.21442 17.3099 4.64325C18.8027 6.07208 19.5491 7.94033 19.5491 10.248C19.5491 11.8185 18.9203 13.5429 17.6626 15.4212C16.405 17.2994 14.5178 19.3288 12.0011 21.5095Z" />
    </symbol>

    <symbol viewBox="0 0 24 24" id="event-detail-map">
        <path d="M15 20.4615L9 18.3615L4.69625 20.0267C4.40142 20.1409 4.12833 20.1082 3.877 19.9287C3.62567 19.7492 3.5 19.5037 3.5 19.1922V6.07695C3.5 5.87945 3.55292 5.7022 3.65875 5.5452C3.76442 5.3882 3.91283 5.27445 4.104 5.20395L9 3.53845L15 5.63845L19.3038 3.9732C19.5986 3.85904 19.8717 3.88687 20.123 4.0567C20.3743 4.22654 20.5 4.46404 20.5 4.7692V17.9615C20.5 18.1653 20.4423 18.3441 20.327 18.498C20.2115 18.6518 20.0551 18.764 19.8577 18.8345L15 20.4615ZM14.25 18.627V6.92695L9.75 5.3537V17.0537L14.25 18.627ZM15.75 18.627L19 17.55V5.69995L15.75 6.92695V18.627ZM5 18.3L8.25 17.0537V5.3537L5 6.44995V18.3Z" />
    </symbol>

    <symbol viewBox="0 0 20 20" id="event-detail-social">
        <path d="M14.9996 18.125C14.3633 18.125 13.8221 17.9022 13.3761 17.4566C12.9301 17.011 12.707 16.4699 12.707 15.8333C12.707 15.7293 12.7153 15.6215 12.7319 15.5101C12.7484 15.3986 12.7733 15.2959 12.8064 15.2019L6.64291 11.5929C6.42282 11.8119 6.17229 11.9831 5.8913 12.1065C5.61032 12.2299 5.31277 12.2916 4.99868 12.2916C4.36211 12.2916 3.82102 12.0689 3.37543 11.6235C2.92983 11.1781 2.70703 10.6372 2.70703 10.0009C2.70703 9.36461 2.92983 8.82344 3.37543 8.3774C3.82102 7.93136 4.36211 7.70833 4.99868 7.70833C5.31277 7.70833 5.61032 7.77003 5.8913 7.89342C6.17229 8.01682 6.42282 8.18803 6.64291 8.40704L12.8064 4.79806C12.7733 4.70405 12.7484 4.60131 12.7319 4.48985C12.7153 4.37841 12.707 4.27067 12.707 4.16665C12.707 3.53008 12.9297 2.98899 13.3752 2.5434C13.8206 2.0978 14.3614 1.875 14.9977 1.875C15.634 1.875 16.1752 2.09771 16.6213 2.54313C17.0673 2.98854 17.2903 3.5294 17.2903 4.16571C17.2903 4.80201 17.0675 5.34319 16.6219 5.78923C16.1763 6.23527 15.6352 6.45829 14.9987 6.45829C14.6846 6.45829 14.387 6.3966 14.1061 6.27321C13.8251 6.14981 13.5745 5.9786 13.3544 5.75958L7.19097 9.36856C7.22409 9.46258 7.24893 9.56513 7.26549 9.67621C7.28205 9.78728 7.29032 9.89465 7.29032 9.99831C7.29032 10.102 7.28205 10.2099 7.26549 10.3221C7.24893 10.4343 7.22409 10.5374 7.19097 10.6314L13.3544 14.2404C13.5745 14.0214 13.8251 13.8502 14.1061 13.7268C14.387 13.6034 14.6846 13.5417 14.9987 13.5417C15.6352 13.5417 16.1763 13.7644 16.6219 14.2098C17.0675 14.6552 17.2903 15.1961 17.2903 15.8324C17.2903 16.4687 17.0676 17.0099 16.6222 17.4559C16.1768 17.9019 15.6359 18.125 14.9996 18.125Z" />
    </symbol>

</svg>